<svg xmlns="http://www.w3.org/2000/svg" viewBox="0 0 1200 620" role="img" aria-label="Abstract digital world map">
  <rect width="1200" height="620" fill="#05070b"/>
  <g fill="#122033" stroke="#2b496c" stroke-width="2" opacity="0.92">
    <path d="M105 190 C145 115 270 105 330 170 C365 210 335 275 270 282 C190 292 95 270 105 190Z"/>
    <path d="M250 305 C320 292 380 335 365 398 C346 478 240 498 188 445 C142 398 174 325 250 305Z"/>
    <path d="M455 150 C520 96 650 112 693 178 C735 242 660 296 570 278 C495 263 405 220 455 150Z"/>
    <path d="M595 302 C675 284 750 322 760 390 C772 468 686 512 620 474 C565 442 528 325 595 302Z"/>
    <path d="M735 170 C820 96 955 120 1005 205 C1055 290 945 334 840 304 C752 278 680 222 735 170Z"/>
    <path d="M845 340 C930 310 1030 360 1052 438 C1074 520 965 562 878 516 C804 477 780 370 845 340Z"/>
    <path d="M515 410 C560 398 605 438 590 485 C573 540 490 548 462 500 C438 460 470 422 515 410Z"/>
    <path d="M1015 448 C1070 432 1130 458 1135 512 C1140 565 1056 582 1018 546 C986 516 982 462 1015 448Z"/>
  </g>
  <g opacity="0.28" stroke="#6fb6ff" stroke-width="1">
    <path d="M0 120 H1200M0 240 H1200M0 360 H1200M0 480 H1200"/>
    <path d="M120 0 V620M240 0 V620M360 0 V620M480 0 V620M600 0 V620M720 0 V620M840 0 V620M960 0 V620M1080 0 V620"/>
  </g>
  <g stroke="#5cffc7" stroke-width="2" fill="none" opacity="0.34">
    <path d="M240 210 C430 155 545 190 590 235"/>
    <path d="M590 235 C680 260 760 260 855 245"/>
    <path d="M580 395 C650 350 740 338 905 395"/>
    <path d="M245 395 C420 460 560 455 720 405"/>
    <path d="M715 205 C685 285 685 355 720 438"/>
  </g>
</svg>
